<mxfile host="65bd71144e">
    <diagram name="Page-1" id="3e8102d1-ef87-2e61-34e1-82d9a586fe2e">
        <mxGraphModel dx="1211" dy="1111" grid="1" gridSize="10" guides="1" tooltips="1" connect="1" arrows="1" fold="1" page="1" pageScale="1" pageWidth="1100" pageHeight="850" background="none" math="0" shadow="0">
            <root>
                <mxCell id="0"/>
                <mxCell id="1" parent="0"/>
                <mxCell id="brf7tR4pHE1us93a3u3g-14" value="" style="group" parent="1" vertex="1" connectable="0">
                    <mxGeometry x="188.5786437626905" y="39.998643762690506" width="282.842712474619" height="445.0013562373095" as="geometry"/>
                </mxCell>
                <mxCell id="brf7tR4pHE1us93a3u3g-13" value="" style="group" parent="brf7tR4pHE1us93a3u3g-14" vertex="1" connectable="0">
                    <mxGeometry width="282.842712474619" height="445.0013562373095" as="geometry"/>
                </mxCell>
                <mxCell id="brf7tR4pHE1us93a3u3g-2" value="" style="verticalLabelPosition=bottom;verticalAlign=top;html=1;shape=mxgraph.basic.partConcEllipse;fillColor=#10739E;strokeColor=none;startAngle=0.3762531626299647;endAngle=0.125;arcWidth=0.4;rotation=135;" parent="brf7tR4pHE1us93a3u3g-13" vertex="1">
                    <mxGeometry x="41.42135623730951" y="41.42135623730951" width="200" height="200" as="geometry"/>
                </mxCell>
                <mxCell id="brf7tR4pHE1us93a3u3g-6" value="&lt;font color=&quot;#ff8000&quot;&gt;Compliance&lt;br style=&quot;font-size: 16px&quot;&gt;Warnings&lt;/font&gt;" style="text;html=1;strokeColor=none;fillColor=none;align=center;verticalAlign=middle;whiteSpace=wrap;rounded=0;fontSize=16;" parent="brf7tR4pHE1us93a3u3g-13" vertex="1">
                    <mxGeometry x="96.42135623730951" y="131.4213562373095" width="90" height="20" as="geometry"/>
                </mxCell>
                <mxCell id="brf7tR4pHE1us93a3u3g-15" value="&lt;font face=&quot;Courier New&quot;&gt;&lt;b&gt;/comply&lt;/b&gt;&lt;/font&gt;" style="text;html=1;strokeColor=none;fillColor=none;align=center;verticalAlign=middle;whiteSpace=wrap;rounded=0;fontSize=16;fontColor=#FFFFFF;" parent="brf7tR4pHE1us93a3u3g-13" vertex="1">
                    <mxGeometry x="121.42135623730951" y="51.42135623730951" width="40" height="20" as="geometry"/>
                </mxCell>
                <mxCell id="28" value="" style="group" parent="brf7tR4pHE1us93a3u3g-13" vertex="1" connectable="0">
                    <mxGeometry x="-58.579999999999984" y="160" width="330.0013562373095" height="282.842712474619" as="geometry"/>
                </mxCell>
                <mxCell id="26" value="" style="verticalLabelPosition=bottom;verticalAlign=top;html=1;shape=mxgraph.basic.partConcEllipse;fillColor=#10739E;strokeColor=none;startAngle=0.625;endAngle=0.8761449798372287;arcWidth=0.4;rotation=135;" parent="28" vertex="1">
                    <mxGeometry x="41.42135623730951" y="41.42135623730951" width="200" height="200" as="geometry"/>
                </mxCell>
                <mxCell id="29" value="" style="html=1;shape=mxgraph.infographic.ribbonSimple;notch1=0;notch2=20;fillColor=#10739E;strokeColor=none;align=center;verticalAlign=middle;fontColor=#ffffff;fontSize=14;fontStyle=1;rotation=90;" parent="28" vertex="1">
                    <mxGeometry x="198.4213562373095" y="131.0013562373095" width="45" height="40" as="geometry"/>
                </mxCell>
                <mxCell id="8" value="&lt;font color=&quot;#333333&quot;&gt;Repository Issue&lt;/font&gt;" style="rounded=0;whiteSpace=wrap;html=1;labelBackgroundColor=none;fontColor=#E6E6E6;strokeColor=#333333;fillColor=#B3B3B3;" parent="28" vertex="1">
                    <mxGeometry x="165.9213562373095" y="181.0013562373095" width="110" height="30" as="geometry"/>
                </mxCell>
                <mxCell id="brf7tR4pHE1us93a3u3g-5" value="Add&amp;nbsp;&lt;i&gt;InnerSource&amp;nbsp;&lt;/i&gt;Topic" style="html=1;shape=mxgraph.infographic.ribbonSimple;notch1=20;notch2=20;fillColor=#10739E;strokeColor=none;align=center;verticalAlign=middle;fontColor=#ffffff;fontSize=14;fontStyle=1;" parent="28" vertex="1">
                    <mxGeometry x="-88.9986437626905" y="41.42135623730951" width="208" height="40" as="geometry"/>
                </mxCell>
                <mxCell id="7" value="&lt;font color=&quot;#e6e6e6&quot;&gt;&lt;span style=&quot;font-family: &amp;#34;helvetica&amp;#34; ; font-size: 12px ; font-style: normal ; font-weight: 700 ; letter-spacing: normal ; text-align: center ; text-indent: 0px ; text-transform: none ; word-spacing: 0px ; display: inline ; float: none&quot;&gt;Innersource&lt;/span&gt;&lt;br style=&quot;font-family: &amp;#34;helvetica&amp;#34; ; font-size: 12px ; font-style: normal ; font-weight: 700 ; letter-spacing: normal ; text-align: center ; text-indent: 0px ; text-transform: none ; word-spacing: 0px&quot;&gt;&lt;span style=&quot;font-family: &amp;#34;helvetica&amp;#34; ; font-size: 12px ; font-style: normal ; font-weight: 700 ; letter-spacing: normal ; text-align: center ; text-indent: 0px ; text-transform: none ; word-spacing: 0px ; display: inline ; float: none&quot;&gt;Ready Report&lt;/span&gt;&lt;br style=&quot;font-family: &amp;#34;helvetica&amp;#34; ; font-size: 12px ; font-style: normal ; font-weight: 700 ; letter-spacing: normal ; text-align: center ; text-indent: 0px ; text-transform: none ; word-spacing: 0px&quot;&gt;&lt;span style=&quot;font-family: &amp;#34;helvetica&amp;#34; ; font-size: 12px ; font-style: normal ; font-weight: 700 ; letter-spacing: normal ; text-align: center ; text-indent: 0px ; text-transform: none ; word-spacing: 0px ; display: inline ; float: none&quot;&gt;...&lt;/span&gt;&lt;/font&gt;" style="rounded=0;whiteSpace=wrap;html=1;labelBackgroundColor=none;fontColor=#99FFFF;strokeColor=#333333;fillColor=#4D4D4D;" parent="brf7tR4pHE1us93a3u3g-13" vertex="1">
                    <mxGeometry x="107.34135623730951" y="370.0013562373095" width="110" height="60" as="geometry"/>
                </mxCell>
                <mxCell id="brf7tR4pHE1us93a3u3g-8" value="" style="html=1;shape=mxgraph.infographic.ribbonSimple;notch1=0;notch2=20;fillColor=#10739E;strokeColor=none;align=center;verticalAlign=middle;fontColor=#ffffff;fontSize=14;fontStyle=1;rotation=90;" parent="brf7tR4pHE1us93a3u3g-14" vertex="1">
                    <mxGeometry x="39.17135623730951" y="141.1713562373095" width="45" height="40" as="geometry"/>
                </mxCell>
                <mxCell id="brf7tR4pHE1us93a3u3g-3" value="Evaluate Repository" style="html=1;shape=mxgraph.infographic.ribbonSimple;notch1=20;notch2=20;fillColor=#10739E;strokeColor=none;align=center;verticalAlign=middle;fontColor=#ffffff;fontSize=14;fontStyle=1;" parent="1" vertex="1">
                    <mxGeometry x="240" y="241.42000000000002" width="200" height="40" as="geometry"/>
                </mxCell>
                <mxCell id="brf7tR4pHE1us93a3u3g-4" value="Repo is Compliant" style="html=1;shape=mxgraph.infographic.ribbonSimple;notch1=20;notch2=20;fillColor=#10739E;strokeColor=none;align=center;verticalAlign=middle;fontColor=#ffffff;fontSize=14;fontStyle=1;" parent="1" vertex="1">
                    <mxGeometry x="430" y="241.42000000000002" width="200" height="40" as="geometry"/>
                </mxCell>
                <mxCell id="brf7tR4pHE1us93a3u3g-12" value="Add to &lt;i&gt;InnerSource&lt;/i&gt;" style="html=1;shape=mxgraph.infographic.ribbonSimple;notch1=20;notch2=20;fillColor=#10739E;strokeColor=none;align=center;verticalAlign=middle;fontColor=#ffffff;fontSize=14;fontStyle=1;" parent="1" vertex="1">
                    <mxGeometry x="620" y="241.42000000000002" width="200" height="40" as="geometry"/>
                </mxCell>
                <mxCell id="11" value="" style="group" parent="1" vertex="1" connectable="0">
                    <mxGeometry x="840" y="210" width="110" height="90" as="geometry"/>
                </mxCell>
                <mxCell id="12" value="&lt;font&gt;&lt;span style=&quot;font-family: &amp;quot;helvetica&amp;quot; ; font-size: 12px ; font-style: normal ; font-weight: 700 ; letter-spacing: normal ; text-align: center ; text-indent: 0px ; text-transform: none ; word-spacing: 0px ; display: inline ; float: none&quot;&gt;Innersource&lt;/span&gt;&lt;br style=&quot;font-family: &amp;quot;helvetica&amp;quot; ; font-size: 12px ; font-style: normal ; font-weight: 700 ; letter-spacing: normal ; text-align: center ; text-indent: 0px ; text-transform: none ; word-spacing: 0px&quot;&gt;&lt;span style=&quot;font-family: &amp;quot;helvetica&amp;quot; ; font-size: 12px ; font-style: normal ; font-weight: 700 ; letter-spacing: normal ; text-align: center ; text-indent: 0px ; text-transform: none ; word-spacing: 0px ; display: inline ; float: none&quot;&gt;Ready Report&lt;/span&gt;&lt;br style=&quot;font-family: &amp;quot;helvetica&amp;quot; ; font-size: 12px ; font-style: normal ; font-weight: 700 ; letter-spacing: normal ; text-align: center ; text-indent: 0px ; text-transform: none ; word-spacing: 0px&quot;&gt;&lt;span style=&quot;font-family: &amp;quot;helvetica&amp;quot; ; font-size: 12px ; font-style: normal ; font-weight: 700 ; letter-spacing: normal ; text-align: center ; text-indent: 0px ; text-transform: none ; word-spacing: 0px ; display: inline ; float: none&quot;&gt;...&lt;/span&gt;&lt;/font&gt;" style="rounded=0;whiteSpace=wrap;html=1;labelBackgroundColor=none;fontColor=#E6E6E6;strokeColor=#333333;fillColor=#4D4D4D;" parent="11" vertex="1">
                    <mxGeometry y="29" width="110" height="60" as="geometry"/>
                </mxCell>
                <mxCell id="13" value="&lt;font color=&quot;#333333&quot;&gt;JSON&lt;/font&gt;" style="rounded=0;whiteSpace=wrap;html=1;labelBackgroundColor=none;fontColor=#E6E6E6;strokeColor=#333333;fillColor=#B3B3B3;" parent="11" vertex="1">
                    <mxGeometry width="110" height="30" as="geometry"/>
                </mxCell>
            </root>
        </mxGraphModel>
    </diagram>
</mxfile>